<svg width="28" height="30" viewBox="0 0 28 30" fill="none" xmlns="http://www.w3.org/2000/svg">
<path d="M27.9998 8.7902C22.8385 12.8807 17.7301 16.929 12.5759 21.0148C11.5908 19.8796 10.6245 18.7655 9.61239 17.601C13.602 14.4018 17.5729 11.2166 21.5649 8.01385C20.1037 6.26295 18.3364 5.12539 16.0636 4.92485C11.0994 4.48625 6.25132 7.93176 5.01408 12.7705C4.43005 15.0561 4.79829 17.2281 5.93468 19.2675C7.33493 21.7771 9.39895 23.5315 12.1643 24.3384C15.1888 25.2203 17.9506 24.5284 20.357 22.5558C21.2694 21.8076 22.02 20.8612 22.8421 20.0028C22.9453 19.8949 23.0285 19.7682 23.1423 19.624C24.4898 20.4695 25.8173 21.301 27.1859 22.1594C26.5303 23.3134 25.8431 24.4076 24.9108 25.3176C23.0273 27.1576 20.764 28.3104 18.2062 28.8757C14.8193 29.6227 11.4923 29.414 8.29071 28.0431C4.57078 26.4505 2.05056 23.6957 0.830916 19.8456C-0.534152 15.5335 -0.251522 11.294 1.93329 7.30082C4.18612 3.18334 7.73366 0.827303 12.3718 0.164705C16.0765 -0.364201 19.5326 0.382834 22.7107 2.37532C24.1684 3.28888 25.4104 4.42644 26.3169 5.89705C26.8997 6.84228 27.4345 7.81566 27.9998 8.79255V8.7902Z" fill="black"/>
</svg>
